<?xml version="1.0" encoding="UTF-8"?>
<svg id="a" data-name="Layer 1" xmlns="http://www.w3.org/2000/svg" width="49" height="49" viewBox="0 0 49 49">
  <path d="M48.968,23.248C48.286,9.888,36.906-.693,23.198.035,9.41.768-.835,12.647.054,26.099c.883,13.361,12.361,23.572,25.74,22.867,13.461-.71,23.861-12.245,23.174-25.717Z" fill="#9f7d7b"/>
  <path d="M13.64,26.414c-1.215-1.212-.855-2.996.151-3.962,1.066-1.022,2.736-1.052,3.881.07l3.731,3.66,9.542-9.506c1.141-1.137,2.931-.782,3.885.218.993,1.041,1.083,2.755-.067,3.905l-11.524,11.528c-.952.952-2.739.928-3.674-.004l-5.925-5.911Z" fill="#fff"/>
</svg>