<?xml version="1.0" encoding="UTF-8"?>
<svg id="a" data-name="Layer 1" xmlns="http://www.w3.org/2000/svg" width="49" height="49" viewBox="0 0 49 49">
  <path d="M23.198.035c13.708-.728,25.088,9.853,25.77,23.213.687,13.473-9.712,25.008-23.174,25.717C12.415,49.671.937,39.46.054,26.099-.835,12.647,9.41.768,23.198.035ZM29.231,20.978l-7.998,7.599c-.59.561-.387,1.632.279,2.117,2.931,2.133,5.765,4.095,8.904,5.923.436.254,1.522.272,1.95.116s.979-.91,1.07-1.492l3.08-19.708c.063-.404-.2-1.171-.473-1.36s-1.15-.355-1.48-.218l-25.177,10.418c-.267.11-.666.769-.624,1.037s.49.743.759.828l4.681,1.477c1.325.418,2.517.128,3.654-.639l10.599-7.148c.236-.159,1.073-.344,1.112-.089.031.205-.096.912-.333,1.138Z" fill="#f1f2f2"/>
</svg>