<?xml version="1.0" encoding="UTF-8"?>
<svg id="a" data-name="Layer 1" xmlns="http://www.w3.org/2000/svg" width="49" height="49" viewBox="0 0 49 49">
  <path d="M22.409.091c13.731-1.172,25.443,9.095,26.512,22.472s-8.888,25.139-22.168,26.336C13.22,50.118,1.299,40.172.096,26.638-1.086,13.338,8.757,1.256,22.409.091ZM31.31,37.334c3.304-.007,6.015-2.762,6.019-5.943l.015-13.65c.004-3.382-2.807-6.104-6.196-6.098l-13.489.027c-3.751.007-6.094,3.276-6.071,6.797l.085,12.943c.022,3.389,2.941,5.956,6.227,5.95l13.41-.027Z" fill="#f1f2f2"/>
  <path d="M30.997,35.16l-12.828-.03c-2.076-.005-4.222-1.81-4.223-3.952l-.008-13.221c-.002-2.645,2.428-4.074,4.749-4.063l11.404.053c2.586-.372,5.031,1.579,5.034,4.275l.016,12.427c.003,2.374-1.723,4.182-4.144,4.511ZM30.969,16.244c-.683.324-.804,1.32-.442,1.962.27.479,1.265.657,1.83.302.521-.327.689-1.261.386-1.817-.276-.506-1.17-.734-1.774-.447ZM22.666,18.132c-3.792,1.085-5.559,4.977-4.47,8.425,1.081,3.422,4.711,5.298,8.093,4.358,3.59-.997,5.619-4.691,4.633-8.183s-4.537-5.665-8.256-4.601Z" fill="#f1f2f2"/>
  <path d="M23.466,20.218c2.568-.627,4.862,1.035,5.369,3.382.492,2.281-.959,4.623-3.172,5.157-2.462.594-4.792-.73-5.425-3.16-.576-2.209.674-4.755,3.229-5.379Z" fill="#f1f2f2"/>
</svg>