<?xml version="1.0" encoding="iso-8859-1"?>
<!-- Generator: Adobe Illustrator 30.1.0, SVG Export Plug-In . SVG Version: 9.03 Build 0)  -->
<svg version="1.0" id="Layer_1" xmlns="http://www.w3.org/2000/svg" xmlns:xlink="http://www.w3.org/1999/xlink" x="0px" y="0px"
	 width="900px" height="50px" viewBox="0 0 900 50" enable-background="new 0 0 900 50" xml:space="preserve">
<g transform="translate(0.000000,69.000000) scale(0.100000,-0.100000)">
	<path fill="#9F7E7C" d="M-2.2,632C-1.7,567.4,0,369,0,369s125.7-34.6,229.4-18.5c46.3,7.2,90.1,26.9,129.5,52.2
		c19.4,12.5,37.6,26.7,54.2,42.7c5.2,5,48.1,47.1,44.4,52.9c123.3-192.6,450-199.3,581-11.9c45-103.7,155.6-175.2,268.6-173.7
		c113,1.6,221.7,76.1,263.8,181c151.4-220.5,532.1-218.9,681.6,2.9c34.3-114.9,146.1-182.1,265.9-187.4
		c119.8-5.3,238.8,51.8,283,163.3c103.1-187.7,421.8-191.4,529.3-6.1c125.9-201.7,468.2-208,601.4-10.9
		c131.1-182.9,448.9-179.8,576.3,5.7c153.3-199.3,505.1-189.7,647.3,17.8c111.7-202.1,454.3-207.3,571.9-8.6
		C5776.8,366.2,5893.2,298,6008,306s220.6,91.7,254.7,201.6c132.3-237.5,534-245.2,675.3-12.9c18.6-121.1,149.9-203.5,272.1-194.3
		s229.4,91.8,298.2,193.2c38-94.2,136.5-160.7,238.2-160.6c101.6,0.1,200,66.7,237.8,161c153.3-190.7,488.5-187.4,638,6.2
		C8717.1,398.4,8861.7,345,9000,361c0,176.3-0.1,152.7-0.1,329c-2999.9,0-5999.8,0-8999.7,0c-3-77.2-3.9,45.5-2.7-31.8
		C-2.3,649.5-2.2,640.8-2.2,632z"/>
</g>
</svg>
