<?xml version="1.0" encoding="UTF-8"?><svg id="a" xmlns="http://www.w3.org/2000/svg" viewBox="0 0 900.3 50"><path d="M.08,5.8c.05,6.46.22,26.3.22,26.3,0,0,12.57,3.46,22.94,1.85,4.63-.72,9.01-2.69,12.95-5.22,1.94-1.25,3.76-2.67,5.42-4.27.52-.5,4.81-4.71,4.44-5.29,12.33,19.26,45,19.93,58.1,1.19,4.5,10.37,15.56,17.52,26.86,17.37,11.3-.16,22.17-7.61,26.38-18.1,15.14,22.05,53.21,21.89,68.16-.29,3.43,11.49,14.61,18.21,26.59,18.74,11.98.53,23.88-5.18,28.3-16.33,10.31,18.77,42.18,19.14,52.93.61,12.59,20.17,46.82,20.8,60.14,1.09,13.11,18.29,44.89,17.98,57.63-.57,15.33,19.93,50.51,18.97,64.73-1.78,11.17,20.21,45.43,20.73,57.19.86,4.92,10.42,16.56,17.24,28.04,16.44s22.06-9.17,25.47-20.16c13.23,23.75,53.4,24.52,67.53,1.29,1.86,12.11,14.99,20.35,27.21,19.43,12.22-.92,22.94-9.18,29.82-19.32,3.8,9.42,13.65,16.07,23.82,16.06,10.16,0,20-6.67,23.78-16.1,15.33,19.07,48.85,18.74,63.8-.62,9.48,10.18,23.94,15.52,37.77,13.92V0H.32C.02,7.72-.07-4.55.05,3.18c.02.87.03,1.74.03,2.62Z" style="fill:#f4efef;"/></svg>